# xmcd
#
# Track frame offsets: 
#        150
#        15116
#        30811
#        51331
#        65693
#        79489
#        95300
#        108949
#        123234
#        136521
#        152322
#        166123
#
# Disc length: 2380 seconds
#
# Revision: 0
# Processed by: cddbd v1.5.2PL0 Copyright (c) Steve Scherf et al.
# Submitted via: ExactAudioCopyFreeDBPlugin 1.0
#
DISCID=7c094a0c
DTITLE=Nach - Nach
DYEAR=2015
DGENRE=Pop
TTITLE0=Coeur de pierre
TTITLE1=Ame mélodique
TTITLE2=Lève-toi
TTITLE3=Je suis moi
TTITLE4=Je te veux
TTITLE5=Oh oui je t'aime
TTITLE6=T'es haut
TTITLE7=Ce qu'ils deviennent
TTITLE8=Love
TTITLE9=A toi mon étranger
TTITLE10=Juste là
TTITLE11=Chante encore
EXTD=
EXTT0=
EXTT1=
EXTT2=
EXTT3=
EXTT4=
EXTT5=
EXTT6=
EXTT7=
EXTT8=
EXTT9=
EXTT10=
EXTT11=
PLAYORDER=
